# xmcd
#
# Track frame offsets:
#	183
#	17480
#	35995
#	52593
#	69658
#	86900
#	101728
#	118905
#	135678
#	153395
#	169858
#	185080
#	203020
#	221550
#	237675
#	253043
#
# Disc length: 3592 seconds
#
# Revision: 2
# Processed by: cddbd v1.5.2PL0 Copyright (c) Steve Scherf et al.
# Submitted via: EasyCDDAExtractor 15.2.5.1
#
DISCID=ee0e0610
DTITLE=無言的結局 - 情歌合唱精品集
DYEAR=1989
DGENRE=Alternative
TTITLE0=無言的結局
TTITLE1=從頭愛起
TTITLE2=無奈
TTITLE3=分手
TTITLE4=另一個結局
TTITLE5=曾經
TTITLE6=僅此一次的錯
TTITLE7=珍重我的愛
TTITLE8=哦！你也在這裹
TTITLE9=今夜我敬你
TTITLE10=千萬別說
TTITLE11=心碎的抱歉
TTITLE12=從頭愛起
TTITLE13=世記情
TTITLE14=再一次
TTITLE15=錯愛
EXTD=
EXTT0=
EXTT1=
EXTT2=
EXTT3=
EXTT4=
EXTT5=
EXTT6=
EXTT7=
EXTT8=
EXTT9=
EXTT10=
EXTT11=
EXTT12=
EXTT13=
EXTT14=
EXTT15=
PLAYORDER=
